<svg xmlns="http://www.w3.org/2000/svg" width="24" height="24" viewBox="0 0 24 24" role="img" aria-label="WhatsApp">
  <path fill="#25D366" d="M12 2a10 10 0 0 0-8.5 15.3L2 22l4.9-1.3A10 10 0 1 0 12 2z"/>
  <path fill="#fff" d="M8.7 7.6c-.2-.4-.4-.4-.6-.4h-.5c-.2 0-.4.1-.5.3-.2.2-.7.7-.7 1.7s.7 2 1 2.4c.3.4 1.3 2.1 3.2 2.9 1.6.7 1.9.6 2.2.6.3-.1 1-.4 1.2-.9.1-.4.1-.8 0-.9-.1-.1-.2-.2-.4-.3l-1.1-.6c-.2-.1-.3-.1-.5.1-.2.2-.6.7-.7.8-.1.1-.2.1-.4 0-.2-.1-.9-.3-1.6-1-.6-.6-1-1.4-1.1-1.6-.1-.2 0-.3.1-.4.1-.1.2-.2.3-.3.1-.1.1-.2.2-.4.1-.2.1-.3 0-.5l-.5-1z"/>
</svg>
